<svg xmlns="http://www.w3.org/2000/svg" viewBox="0 0 500 500" role="img" aria-label="City Günlük Sneaker"><defs><linearGradient id="m" x1="0" x2="1" y2=".85"><stop stop-color="#e7bb82"/><stop offset=".53" stop-color="#e7bb82"/><stop offset="1" stop-color="#172a30" stop-opacity=".72"/></linearGradient><linearGradient id="l" x1="0" y1="0" x2="1" y2="1"><stop stop-color="#fff" stop-opacity=".65"/><stop offset="1" stop-color="#fff" stop-opacity="0"/></linearGradient><linearGradient id="gold" x1="0" y1="0" x2="1" y2="1"><stop stop-color="#765026"/><stop offset=".23" stop-color="#f3d89b"/><stop offset=".52" stop-color="#e7bb82"/><stop offset=".77" stop-color="#f5dba7"/><stop offset="1" stop-color="#99703b"/></linearGradient><filter id="s" x="-40%" y="-40%" width="180%" height="200%"><feDropShadow dx="0" dy="16" stdDeviation="12" flood-color="#18211b" flood-opacity=".14"/></filter></defs><g filter="url(#s)"><path d="M78 298l37-113 83 37 58-40 59 92 94 42q26 10 18 54H70q-5-40 8-72z" fill="url(#m)"/><path d="M72 349q131 28 354-2v33q-164 32-358 0z" fill="#f8f2e4"/><path d="M117 201l-25 93 85 20 21-85" fill="#fff" opacity=".3"/><path d="M220 245l60-10m-42 32 61-10m-42 31 56-9" stroke="#fff9e9" stroke-width="9" stroke-linecap="round"/><path d="M152 332q92-4 170-48" fill="none" stroke="#fff" stroke-opacity=".5" stroke-width="7"/><path d="M82 385h322" stroke="#524f46" stroke-opacity=".35" stroke-width="5"/></g></svg>