<svg xmlns="http://www.w3.org/2000/svg" viewBox="0 0 500 500" role="img" aria-label="Cube Taşınabilir Hoparlör"><defs><linearGradient id="m" x1="0" x2="1" y2=".85"><stop stop-color="#6977a7"/><stop offset=".53" stop-color="#6977a7"/><stop offset="1" stop-color="#172a30" stop-opacity=".72"/></linearGradient><linearGradient id="l" x1="0" y1="0" x2="1" y2="1"><stop stop-color="#fff" stop-opacity=".65"/><stop offset="1" stop-color="#fff" stop-opacity="0"/></linearGradient><linearGradient id="gold" x1="0" y1="0" x2="1" y2="1"><stop stop-color="#765026"/><stop offset=".23" stop-color="#f3d89b"/><stop offset=".52" stop-color="#6977a7"/><stop offset=".77" stop-color="#f5dba7"/><stop offset="1" stop-color="#99703b"/></linearGradient><filter id="s" x="-40%" y="-40%" width="180%" height="200%"><feDropShadow dx="0" dy="16" stdDeviation="12" flood-color="#18211b" flood-opacity=".14"/></filter></defs><g filter="url(#s)"><rect x="155" y="96" width="190" height="316" rx="63" fill="url(#m)"/><rect x="171" y="141" width="158" height="250" rx="48" fill="#142a22" opacity=".3"/><path d="M184 167h132" stroke="#fff" stroke-opacity=".15" stroke-width="2"/><path d="M184 176h132" stroke="#fff" stroke-opacity=".15" stroke-width="2"/><path d="M184 185h132" stroke="#fff" stroke-opacity=".15" stroke-width="2"/><path d="M184 194h132" stroke="#fff" stroke-opacity=".15" stroke-width="2"/><path d="M184 203h132" stroke="#fff" stroke-opacity=".15" stroke-width="2"/><path d="M184 212h132" stroke="#fff" stroke-opacity=".15" stroke-width="2"/><path d="M184 221h132" stroke="#fff" stroke-opacity=".15" stroke-width="2"/><path d="M184 230h132" stroke="#fff" stroke-opacity=".15" stroke-width="2"/><path d="M184 239h132" stroke="#fff" stroke-opacity=".15" stroke-width="2"/><path d="M184 248h132" stroke="#fff" stroke-opacity=".15" stroke-width="2"/><path d="M184 257h132" stroke="#fff" stroke-opacity=".15" stroke-width="2"/><path d="M184 266h132" stroke="#fff" stroke-opacity=".15" stroke-width="2"/><path d="M184 275h132" stroke="#fff" stroke-opacity=".15" stroke-width="2"/><path d="M184 284h132" stroke="#fff" stroke-opacity=".15" stroke-width="2"/><path d="M184 293h132" stroke="#fff" stroke-opacity=".15" stroke-width="2"/><path d="M184 302h132" stroke="#fff" stroke-opacity=".15" stroke-width="2"/><path d="M184 311h132" stroke="#fff" stroke-opacity=".15" stroke-width="2"/><path d="M184 320h132" stroke="#fff" stroke-opacity=".15" stroke-width="2"/><path d="M184 329h132" stroke="#fff" stroke-opacity=".15" stroke-width="2"/><path d="M184 338h132" stroke="#fff" stroke-opacity=".15" stroke-width="2"/><path d="M184 347h132" stroke="#fff" stroke-opacity=".15" stroke-width="2"/><path d="M184 356h132" stroke="#fff" stroke-opacity=".15" stroke-width="2"/><path d="M224 121h52" stroke="#fff" stroke-opacity=".55" stroke-width="5"/><circle cx="250" cy="315" r="27" stroke="#fff" stroke-opacity=".3" stroke-width="2" fill="none"/></g></svg>