<svg xmlns="http://www.w3.org/2000/svg" viewBox="0 0 500 500" role="img" aria-label="Serbest Gezen Yumurta · 6 Adet"><defs><linearGradient id="m" x1="0" x2="1" y2=".85"><stop stop-color="#cbb089"/><stop offset=".53" stop-color="#cbb089"/><stop offset="1" stop-color="#172a30" stop-opacity=".72"/></linearGradient><linearGradient id="l" x1="0" y1="0" x2="1" y2="1"><stop stop-color="#fff" stop-opacity=".65"/><stop offset="1" stop-color="#fff" stop-opacity="0"/></linearGradient><linearGradient id="gold" x1="0" y1="0" x2="1" y2="1"><stop stop-color="#765026"/><stop offset=".23" stop-color="#f3d89b"/><stop offset=".52" stop-color="#cbb089"/><stop offset=".77" stop-color="#f5dba7"/><stop offset="1" stop-color="#99703b"/></linearGradient><filter id="s" x="-40%" y="-40%" width="180%" height="200%"><feDropShadow dx="0" dy="16" stdDeviation="12" flood-color="#18211b" flood-opacity=".14"/></filter></defs><g filter="url(#s)"><path d="M80 240h340l-25 154H102z" fill="#b9ad8e"/><path d="M111 258q-16-123 45-135t38 135M211 258q-13-123 49-135t38 135M311 258q-13-123 49-135t36 135" fill="#e9d9b4"/><path d="M99 274h301v96H99z" fill="#cfc3a5"/><path d="M119 281l12 74m79-74 12 74m79-74 12 74" stroke="#9c937c" stroke-width="13"/></g></svg>